<svg width="40" height="40" viewBox="0 0 40 40" fill="none" xmlns="http://www.w3.org/2000/svg">
  <!-- Base circular shape -->
  <circle cx="20" cy="20" r="18" fill="#1E8A4E" fill-opacity="0.1" />
  
  <!-- Database cylinder shape -->
  <path d="M12 14C12 11.7909 15.5817 10 20 10C24.4183 10 28 11.7909 28 14V26C28 28.2091 24.4183 30 20 30C15.5817 30 12 28.2091 12 26V14Z" fill="#1E8A4E" fill-opacity="0.15" stroke="#1E8A4E" stroke-width="1.5" />
  
  <!-- Top ellipse of database -->
  <ellipse cx="20" cy="14" rx="8" ry="4" fill="#1E8A4E" fill-opacity="0.2" stroke="#1E8A4E" stroke-width="1.5" />
  
  <!-- Middle line of database -->
  <path d="M12 20C12 22.2091 15.5817 24 20 24C24.4183 24 28 22.2091 28 20" stroke="#1E8A4E" stroke-width="1.5" />
  
  <!-- DNA double helix strands -->
  <path d="M14 12C17 14 19 14 22 12M18 15C21 17 23 17 26 15M14 18C17 20 19 20 22 18M18 21C21 23 23 23 26 21M14 24C17 26 19 26 22 24M18 27C21 29 23 29 26 27" stroke="#1E8A4E" stroke-width="1.5" stroke-linecap="round" />
  
  <!-- Data points/nodes -->
  <circle cx="14" cy="12" r="1.5" fill="#1E8A4E" />
  <circle cx="22" cy="12" r="1.5" fill="#1E8A4E" />
  <circle cx="18" cy="15" r="1.5" fill="#1E8A4E" />
  <circle cx="26" cy="15" r="1.5" fill="#1E8A4E" />
  <circle cx="14" cy="18" r="1.5" fill="#1E8A4E" />
  <circle cx="22" cy="18" r="1.5" fill="#1E8A4E" />
  <circle cx="18" cy="21" r="1.5" fill="#1E8A4E" />
  <circle cx="26" cy="21" r="1.5" fill="#1E8A4E" />
  <circle cx="14" cy="24" r="1.5" fill="#1E8A4E" />
  <circle cx="22" cy="24" r="1.5" fill="#1E8A4E" />
  <circle cx="18" cy="27" r="1.5" fill="#1E8A4E" />
  <circle cx="26" cy="27" r="1.5" fill="#1E8A4E" />
</svg>
