<svg width="32" height="32" viewBox="0 0 32 32" fill="none" xmlns="http://www.w3.org/2000/svg">
  <!-- Base circular shape -->
  <circle cx="16" cy="16" r="15" fill="#1E8A4E" />
  
  <!-- Database cylinder shape - simplified for favicon -->
  <path d="M9 11C9 9.34315 12.1340 8 16 8C19.866 8 23 9.34315 23 11V21C23 22.6569 19.866 24 16 24C12.1340 24 9 22.6569 9 21V11Z" fill="#FFFFFF" fill-opacity="0.2" stroke="#FFFFFF" stroke-width="1.25" />
  
  <!-- Top ellipse of database -->
  <ellipse cx="16" cy="11" rx="7" ry="3" fill="#FFFFFF" fill-opacity="0.3" stroke="#FFFFFF" stroke-width="1.25" />
  
  <!-- DNA helix lines - simplified for favicon -->
  <path d="M11 10C13 12 14.5 12 16.5 10M15.5 14C17.5 16 19 16 21 14M11 18C13 20 14.5 20 16.5 18M15.5 22C17.5 24 19 24 21 22" stroke="#FFFFFF" stroke-width="1.25" stroke-linecap="round" />
  
  <!-- Key data points -->
  <circle cx="11" cy="10" r="1.25" fill="#FFFFFF" />
  <circle cx="16.5" cy="10" r="1.25" fill="#FFFFFF" />
  <circle cx="15.5" cy="14" r="1.25" fill="#FFFFFF" />
  <circle cx="21" cy="14" r="1.25" fill="#FFFFFF" />
  <circle cx="11" cy="18" r="1.25" fill="#FFFFFF" />
  <circle cx="16.5" cy="18" r="1.25" fill="#FFFFFF" />
  <circle cx="15.5" cy="22" r="1.25" fill="#FFFFFF" />
  <circle cx="21" cy="22" r="1.25" fill="#FFFFFF" />
</svg> 